<svg id="Capa_1" enable-background="new 0 0 497 497" height="512" viewBox="0 0 497 497" width="512" xmlns="http://www.w3.org/2000/svg"><g><g><circle cx="248.5" cy="248.5" fill="#fbfbfb" r="248.5"/></g><g><path d="m248.5 0c-5.038 0-10.036.168-15 .464 130.256 7.757 233.5 115.831 233.5 248.036s-103.244 240.279-233.5 248.036c4.964.296 9.962.464 15 .464 137.243 0 248.5-111.257 248.5-248.5s-111.257-248.5-248.5-248.5z" fill="#e6e6e6"/></g><g><circle cx="437.336" cy="91.712" fill="#92e0c4" r="50.496"/></g><g><path d="m437.336 41.216c-5.223 0-10.261.793-15 2.266 20.564 6.389 35.496 25.566 35.496 48.231s-14.932 41.842-35.496 48.23c4.739 1.472 9.777 2.266 15 2.266 27.888 0 50.496-22.608 50.496-50.496s-22.607-50.497-50.496-50.497z" fill="#77d1b3"/></g><g><ellipse cx="197.795" cy="162.156" fill="#80b6fc" rx="43.052" ry="43.052" transform="matrix(.918 -.397 .397 .918 -48.119 91.844)"/></g><g><path d="m197.795 119.104c-5.276 0-10.329.953-15 2.69 16.38 6.09 28.052 21.861 28.052 40.362s-11.672 34.271-28.052 40.361c4.671 1.737 9.724 2.69 15 2.69 23.777 0 43.052-19.275 43.052-43.052 0-23.776-19.275-43.051-43.052-43.051z" fill="#62a4fb"/></g><g><path d="m299.439 317.896c-7.767-19.741-6.194-19.868-16.793-35.901-18.189-27.513-49.4-45.661-84.851-45.661-50.733 0-92.784 37.168-100.41 85.759-1.3 8.285 5.007 15.803 13.393 15.803h145.375z" fill="#80b6fc"/></g><g><path d="m197.795 236.334c-5.083 0-10.074.39-14.957 1.11 48.976 7.266 86.56 49.464 86.601 100.452h30c-.045-56.099-45.535-101.562-101.644-101.562z" fill="#62a4fb"/></g><g><circle cx="328.501" cy="205.501" fill="#bed9fd" r="30.643"/></g><g><path d="m328.501 174.857c-5.451 0-10.565 1.43-15 3.925 9.334 5.252 15.643 15.246 15.643 26.718s-6.309 21.467-15.643 26.718c4.435 2.495 9.549 3.925 15 3.925 16.924 0 30.643-13.719 30.643-30.643.001-16.923-13.719-30.643-30.643-30.643z" fill="#9ec8fc"/></g><g><path d="m385.69 337.896c8.673 0 15.234-8.049 13.257-16.494-7.485-31.98-36.184-55.795-70.445-55.795-39.937 0-72.316 32.359-72.348 72.289z" fill="#bed9fd"/></g><g><path d="m398.947 321.402c-7.485-31.98-36.184-55.795-70.445-55.795-5.145 0-10.161.546-15.002 1.567 27.399 5.777 49.086 27.049 55.448 54.228 1.977 8.445-4.583 16.494-13.257 16.494h30c8.672 0 15.232-8.049 13.256-16.494z" fill="#9ec8fc"/></g><path d="m452.464 84.212h-7.628v-7.628c0-4.142-3.358-7.5-7.5-7.5s-7.5 3.358-7.5 7.5v7.628h-7.628c-4.142 0-7.5 3.358-7.5 7.5s3.358 7.5 7.5 7.5h7.628v7.628c0 4.142 3.358 7.5 7.5 7.5s7.5-3.358 7.5-7.5v-7.628h7.628c4.142 0 7.5-3.358 7.5-7.5s-3.358-7.5-7.5-7.5z" fill="#fbfbfb"/></g></svg>