<?xml version="1.0" encoding="iso-8859-1"?>
<!-- Generator: Adobe Illustrator 19.0.0, SVG Export Plug-In . SVG Version: 6.00 Build 0)  -->
<svg version="1.1" id="Capa_1" xmlns="http://www.w3.org/2000/svg" xmlns:xlink="http://www.w3.org/1999/xlink" x="0px" y="0px"
	 viewBox="0 0 512.002 512.002" style="enable-background:new 0 0 512.002 512.002;" xml:space="preserve">
<path style="fill:#5D9CEC;" d="M386.102,350.066h-60.048c-0.007,0-0.013,0-0.02,0H125.9c-31.73,0-57.543,25.815-57.543,57.543
	c0,0.02,0.003,0.039,0.003,0.059v85.819v10.012v0.937c0,0.02-0.003,0.039-0.003,0.059c0,3.657,2.616,6.698,6.078,7.365
	c0.463,0.09,0.942,0.141,1.431,0.141c0.006,0,0.013-15.825,0.019,0h360.217c0.014-15.825,0.026,0.002,0.039,0.002
	c4.146,0,7.506-3.36,7.506-7.506V407.61C443.646,375.88,417.832,350.066,386.102,350.066z"/>
<path style="fill:#4A89DC;" d="M386.102,350.066h-60.048c-0.004,0-0.007,0-0.01,0h30.033c31.73,0,57.543,25.815,57.543,57.543
	v96.886c0,4.132-3.34,7.483-7.467,7.504h29.948c0.014,0,0.026,0.002,0.039,0.002c4.146,0,7.506-3.36,7.506-7.506v-96.886
	C443.646,375.88,417.832,350.066,386.102,350.066z"/>
<path style="fill:#965353;" d="M372.069,69.528c-9.579-11.851-21.132-16.371-28.505-18.098c-0.002-6.526-0.004-19.284-0.004-43.625
	c0-4.145-3.36-7.506-7.506-7.506c-6.054,0-12.257-0.068-18.827-0.142C310.406,0.08,303.352,0,296.206,0
	c-54.327,0-109.11,5.111-141.842,42.188c-24.654,27.927-33.125,75.514-25.961,132.823v0.17c0.638,0.17,42.259-41.203,42.259-41.203
	c12.229,6.382,41.547,19.613,74.361,19.613c34.629,0,87.367-14.906,105.329-20.304c0,0,30.072,42.505,33.244,42.081
	C392.727,129.713,388.734,90.144,372.069,69.528z"/>
<path style="fill:#864B4C;" d="M372.069,69.528c-9.579-11.851-21.132-16.371-28.505-18.098c-0.002-6.526-0.004-19.284-0.004-43.625
	c0-4.145-3.36-7.506-7.506-7.506c-6.054,0-12.257-0.068-18.827-0.142c-6.822-0.076-11.198-0.113-11.198-0.113
	c4.146,0,7.506,3.616,7.506,7.762c0,24.34,0.004,27.436,0.004,43.625s18.924,16.255,28.504,28.106
	c12.669,15.672,18.006,32.292,15.831,64.215c9.129,12.555,23.578,31.904,25.722,31.617
	C392.727,129.713,388.734,90.144,372.069,69.528z"/>
<path style="fill:#E6E9ED;" d="M256.001,335.052c-29.153,0-56.048-9.834-77.558-26.351v38.86c0,0.004,0,0.008,0,0.012
	c0.001,0.25,0.012,0.5,0.038,0.749c0.014,0.137,0.04,0.27,0.061,0.404c0.017,0.104,0.027,0.209,0.048,0.313
	c0.035,0.178,0.083,0.35,0.13,0.522c0.017,0.06,0.029,0.123,0.047,0.184c0.048,0.158,0.107,0.313,0.165,0.467
	c0.028,0.074,0.051,0.15,0.082,0.223c0.054,0.131,0.117,0.256,0.178,0.383c0.045,0.094,0.087,0.191,0.137,0.285
	c0.053,0.1,0.114,0.193,0.172,0.289c0.068,0.115,0.133,0.23,0.207,0.342c0.049,0.074,0.104,0.141,0.155,0.213
	c0.091,0.127,0.182,0.254,0.281,0.377c0.048,0.057,0.101,0.109,0.15,0.166c0.11,0.127,0.219,0.252,0.338,0.371
	c0.109,0.109,0.226,0.209,0.341,0.313c0.066,0.059,0.126,0.121,0.194,0.176c0.194,0.16,0.398,0.31,0.607,0.451
	c0.002,0.002,0.004,0.004,0.006,0.004l30.022,20.015c0.108,0.072,0.225,0.123,0.335,0.189c0.148,0.088,0.295,0.176,0.448,0.252
	c0.212,0.107,0.427,0.197,0.645,0.283c0.142,0.057,0.282,0.115,0.428,0.164c0.248,0.08,0.498,0.137,0.751,0.191
	c0.129,0.027,0.255,0.064,0.386,0.084c0.362,0.057,0.726,0.088,1.089,0.092c0.025,0,0.049,0.006,0.074,0.006
	c0.399,0,0.803-0.045,1.208-0.111c0.201-0.031,0.403-0.063,0.601-0.111c0.005,0,0.011-0.002,0.016-0.002l38.211-9.552l38.21,9.552
	c0.006,0,0.011,0.002,0.017,0.002c0.197,0.049,0.398,0.078,0.598,0.111c0.406,0.066,0.811,0.111,1.212,0.111
	c0.025,0,0.049-0.006,0.074-0.006c0.363-0.004,0.728-0.035,1.09-0.092c0.131-0.02,0.257-0.057,0.386-0.084
	c0.252-0.055,0.502-0.111,0.751-0.191c0.146-0.049,0.285-0.107,0.428-0.164c0.218-0.086,0.433-0.176,0.645-0.283
	c0.153-0.076,0.301-0.164,0.448-0.252c0.111-0.066,0.227-0.117,0.335-0.189l30.022-20.015c0.002,0,0.004-0.002,0.006-0.004
	c0.21-0.141,0.414-0.291,0.608-0.451c0.037-0.031,0.069-0.065,0.105-0.096c0.147-0.127,0.294-0.256,0.431-0.393
	c0.109-0.111,0.209-0.227,0.311-0.342c0.059-0.066,0.121-0.131,0.178-0.199c0.094-0.113,0.178-0.234,0.264-0.352
	c0.058-0.08,0.118-0.156,0.173-0.236c0.069-0.103,0.13-0.211,0.193-0.318c0.063-0.105,0.128-0.207,0.186-0.314
	c0.045-0.084,0.083-0.172,0.124-0.258c0.066-0.135,0.134-0.27,0.191-0.41c0.025-0.06,0.045-0.125,0.069-0.189
	c0.064-0.164,0.126-0.328,0.177-0.5c0.015-0.045,0.023-0.092,0.036-0.139c0.053-0.186,0.104-0.373,0.142-0.564
	c0.014-0.066,0.02-0.135,0.03-0.201c0.031-0.178,0.061-0.355,0.079-0.539c0.023-0.238,0.036-0.48,0.036-0.724
	c0-0.004,0.001-0.008,0.001-0.012v-38.861C312.049,325.218,285.154,335.052,256.001,335.052z"/>
<path style="fill:#4A89DC;" d="M153.424,511.998v-38.027c0-4.146-3.361-7.506-7.506-7.506c-4.145,0-7.506,3.36-7.506,7.506v38.027
	L153.424,511.998L153.424,511.998z"/>
<path style="fill:#FFCE54;" d="M300.195,373.822c-0.108,0.072-0.224,0.123-0.335,0.189c-0.148,0.088-0.295,0.176-0.448,0.252
	c-0.212,0.107-0.427,0.197-0.645,0.283c-0.143,0.057-0.282,0.115-0.428,0.164c-0.248,0.08-0.498,0.137-0.751,0.191
	c-0.129,0.027-0.255,0.064-0.386,0.084c-0.362,0.057-0.727,0.088-1.09,0.092c-0.025,0-0.049,0.006-0.074,0.006
	c-0.4,0-0.806-0.045-1.212-0.111c-0.2-0.033-0.4-0.063-0.598-0.111c-0.006,0-0.011-0.002-0.017-0.002L256,365.307l-38.211,9.552
	c-0.005,0-0.011,0.002-0.016,0.002c-0.198,0.049-0.4,0.08-0.601,0.111c-0.405,0.066-0.809,0.111-1.208,0.111
	c-0.025,0-0.049-0.006-0.074-0.006c-0.363-0.004-0.728-0.035-1.089-0.092c-0.131-0.02-0.257-0.057-0.386-0.084
	c-0.252-0.055-0.502-0.111-0.751-0.191c-0.146-0.049-0.286-0.107-0.428-0.164c-0.218-0.086-0.433-0.176-0.645-0.283
	c-0.153-0.076-0.3-0.164-0.448-0.252c-0.11-0.066-0.227-0.117-0.335-0.189l-0.62-0.412l29.5,29.498
	c0.011,0.012,0.024,0.022,0.035,0.033c0.165,0.162,0.335,0.316,0.514,0.463c0.087,0.072,0.178,0.133,0.267,0.201
	c0.107,0.08,0.211,0.162,0.323,0.236c0.105,0.07,0.214,0.131,0.322,0.195c0.102,0.063,0.203,0.127,0.308,0.182
	c0.11,0.061,0.224,0.109,0.335,0.162c0.109,0.053,0.217,0.107,0.329,0.152c0.11,0.047,0.222,0.082,0.333,0.123
	c0.12,0.043,0.238,0.088,0.36,0.125c0.111,0.033,0.223,0.059,0.335,0.086c0.126,0.033,0.249,0.066,0.377,0.092
	c0.13,0.027,0.26,0.041,0.391,0.061c0.111,0.016,0.221,0.037,0.334,0.049c0.246,0.023,0.493,0.037,0.741,0.037h20.015
	c0.247,0,0.493-0.014,0.74-0.037c0.116-0.012,0.229-0.033,0.344-0.051c0.127-0.018,0.255-0.033,0.381-0.059
	c0.132-0.025,0.259-0.06,0.388-0.094c0.108-0.027,0.216-0.051,0.323-0.084c0.127-0.037,0.251-0.086,0.376-0.131
	c0.105-0.037,0.212-0.072,0.316-0.115c0.119-0.049,0.233-0.108,0.35-0.162c0.105-0.051,0.211-0.098,0.314-0.152
	c0.114-0.06,0.224-0.131,0.335-0.197c0.099-0.061,0.198-0.115,0.295-0.18c0.127-0.084,0.247-0.18,0.369-0.271
	c0.073-0.055,0.148-0.105,0.22-0.164c0.194-0.16,0.381-0.328,0.559-0.506l29.492-29.493L300.195,373.822z"/>
<path style="fill:#F6BB42;" d="M271.322,402.902c-0.178,0.178-0.364,0.346-0.559,0.506c-0.071,0.059-0.147,0.109-0.22,0.164
	c-0.122,0.092-0.242,0.188-0.369,0.271c-0.097,0.064-0.196,0.119-0.295,0.18c-0.111,0.066-0.221,0.137-0.335,0.197
	c-0.104,0.055-0.209,0.102-0.314,0.152c-0.116,0.055-0.23,0.113-0.35,0.162c-0.104,0.043-0.211,0.078-0.316,0.115
	c-0.125,0.045-0.249,0.094-0.376,0.131c-0.107,0.033-0.216,0.057-0.323,0.084c-0.129,0.033-0.256,0.068-0.388,0.094
	c-0.126,0.025-0.254,0.041-0.381,0.059c-0.115,0.018-0.228,0.039-0.344,0.051c-0.246,0.023-0.492,0.037-0.74,0.037h-20.015
	c-0.247,0-0.494-0.014-0.741-0.037c-0.113-0.012-0.223-0.033-0.334-0.049c-0.13-0.02-0.261-0.033-0.391-0.061
	c-0.127-0.025-0.251-0.059-0.377-0.092c-0.112-0.027-0.224-0.053-0.335-0.086c-0.122-0.037-0.24-0.082-0.36-0.125
	c-0.111-0.041-0.223-0.076-0.333-0.123c-0.112-0.045-0.22-0.1-0.329-0.152c-0.112-0.053-0.225-0.102-0.335-0.162
	c-0.105-0.055-0.205-0.119-0.308-0.182c-0.108-0.064-0.217-0.125-0.322-0.195c-0.111-0.074-0.216-0.156-0.323-0.236
	c-0.089-0.068-0.18-0.129-0.267-0.201c-0.179-0.147-0.35-0.301-0.514-0.463c-0.011-0.012-0.024-0.021-0.035-0.033l-2.548-2.547
	l-10.529,111.637h56.782l-10.528-111.637L271.322,402.902z"/>
<path style="fill:#E6E9ED;" d="M396.107,485.669h-90.068c-4.146,0-7.506-3.36-7.506-7.506v-50.038c0-4.146,3.36-7.506,7.506-7.506
	h90.068c4.146,0,7.506,3.36,7.506,7.506v50.038C403.613,482.309,400.252,485.669,396.107,485.669z"/>
<path style="fill:#FFCE54;" d="M373.59,420.62V408.11c0-4.146-3.36-7.506-7.506-7.506h-30.023c-4.146,0-7.506,3.36-7.506,7.506
	v12.509H373.59z"/>
<path style="fill:#FFDECF;" d="M350.353,133.287c-17.962,5.399-70.699,20.304-105.329,20.304c-32.815,0-62.132-13.231-74.361-19.613
	c0,0-41.62,41.373-42.259,41.203v32.274c0,70.358,57.239,127.596,127.596,127.596s127.596-57.238,127.596-127.596v-32.088
	C380.425,175.791,350.353,133.287,350.353,133.287z"/>
<path style="fill:#FFCDBE;" d="M353.572,137.794v69.661c0,65.278-49.276,119.254-112.584,126.709
	c4.926,0.579,9.934,0.888,15.013,0.888c70.357,0,127.596-57.238,127.596-127.596v-32.088
	C381.066,175.705,361.416,148.721,353.572,137.794z"/>
<g>
</g>
<g>
</g>
<g>
</g>
<g>
</g>
<g>
</g>
<g>
</g>
<g>
</g>
<g>
</g>
<g>
</g>
<g>
</g>
<g>
</g>
<g>
</g>
<g>
</g>
<g>
</g>
<g>
</g>
</svg>
