<svg id="Capa_1" enable-background="new 0 0 512 512" height="512" viewBox="0 0 512 512" width="512" xmlns="http://www.w3.org/2000/svg"><g><g><ellipse cx="256" cy="274.993" fill="#fabe2c" rx="154.116" ry="154.115" transform="matrix(.973 -.23 .23 .973 -56.332 66.173)"/><path d="m256 120.877v308.231c84.98 0 154.115-69.136 154.115-154.115s-69.136-154.116-154.115-154.116z" fill="#ff9100"/><path d="m423.589 107.405c-36.69-36.69-83.294-59.857-133.768-67.026l14.772-14.773c5.858-5.858 5.858-15.355 0-21.213-5.857-5.857-15.355-5.857-21.213 0l-37.987 37.987c-5.858 5.857-5.858 15.355 0 21.213l37.986 37.986c2.929 2.929 6.768 4.394 10.606 4.394s7.678-1.465 10.606-4.394c5.858-5.857 5.858-15.355 0-21.213l-8.462-8.462c95.002 18.74 166.876 102.673 166.876 203.089.002 114.144-92.862 207.007-207.005 207.007s-207.007-92.863-207.007-207.006c0-43.555 13.367-85.219 38.657-120.487 24.765-34.537 58.905-60.308 98.732-74.526 7.802-2.786 11.868-11.368 9.083-19.171-2.785-7.802-11.369-11.868-19.171-9.083-45.603 16.281-84.686 45.777-113.025 85.298-28.966 40.396-44.276 88.105-44.276 137.97 0 63.307 24.653 122.824 69.418 167.589 44.765 44.762 104.282 69.416 167.589 69.416s122.824-24.653 167.589-69.417c44.765-44.765 69.418-104.282 69.418-167.589s-24.654-122.825-69.418-167.589z" fill="#5c7099"/></g><path d="m274.313 260.11c-11.866-4.194-24.973-9.249-32.215-14.929-1.813-1.422-2.586-5.023-1.882-8.76.369-1.96 2.086-8.508 8.682-10.494 11.607-3.497 19.515 1.102 22.377 3.239 6.638 4.962 16.036 3.604 20.995-3.032 4.961-6.636 3.603-16.035-3.032-20.995-2.75-2.056-9.456-6.453-19.054-8.84v-4.025c0-8.284-6.716-15-15-15s-15 6.716-15 15v4.949c-15.119 4.58-26.401 17.463-29.449 33.642-2.819 14.963 2.104 29.493 12.85 37.921 10.627 8.335 25.855 14.35 40.729 19.608 11.733 4.147 12.079 13.132 11.241 18.118-1.399 8.323-8.402 17.319-20.471 17.399-12.602.082-16.187-.485-25.699-6.708-6.934-4.537-16.229-2.593-20.765 4.341-4.535 6.933-2.592 16.229 4.341 20.765 10.346 6.768 18.099 9.72 27.223 10.902v4.5c0 8.284 6.716 15 15 15s15-6.716 15-15v-6.034c7.068-2.15 13.527-5.823 19.094-10.937 8.347-7.669 13.979-18.059 15.862-29.256 3.842-22.852-8.546-43.498-30.827-51.374z" fill="#ffe666"/><path d="m289.82 40.379 14.772-14.773c5.858-5.858 5.858-15.355 0-21.213-5.857-5.857-15.355-5.857-21.213 0l-37.986 37.987c-5.858 5.857-5.858 15.355 0 21.213l37.986 37.986c2.929 2.929 6.768 4.394 10.606 4.394s7.678-1.465 10.606-4.394c5.858-5.857 5.858-15.355 0-21.213l-8.462-8.462c95.002 18.74 166.876 102.673 166.876 203.089.002 114.144-92.862 207.007-207.005 207.007v30c63.307 0 122.824-24.653 167.589-69.417 44.765-44.765 69.418-104.282 69.418-167.589s-24.653-122.824-69.418-167.589c-36.69-36.69-83.294-59.858-133.769-67.026z" fill="#404a80"/><g fill="#fabe2c"><path d="m274.313 260.11c-6.1-2.156-12.523-4.542-18.314-7.121v32.379c2.763 1.042 5.545 2.048 8.315 3.027 11.733 4.147 12.079 13.132 11.241 18.118-1.363 8.107-8.057 16.828-19.556 17.351v48.807c7.903-.426 14.185-6.95 14.185-14.959v-6.034c7.068-2.15 13.527-5.823 19.094-10.937 8.347-7.669 13.979-18.059 15.862-29.256 3.842-22.853-8.546-43.499-30.827-51.375z"/><path d="m255.999 177.315v47.384c7.731-.347 13.044 2.8 15.276 4.468 6.638 4.962 16.036 3.604 20.995-3.032 4.961-6.636 3.603-16.035-3.032-20.995-2.75-2.056-9.456-6.453-19.054-8.84v-4.025c0-8.01-6.282-14.534-14.185-14.96z"/></g></g></svg>